<svg xmlns="http://www.w3.org/2000/svg" xmlns:xlink="http://www.w3.org/1999/xlink" viewBox="0 0 119.6 40"><defs><style>.cls-1{fill:#a6a6a6;}.cls-10,.cls-2,.cls-3{fill:#fff;}.cls-2{stroke:#fff;stroke-miterlimit:10;stroke-width:0.2px;}.cls-4{fill:url(#linear-gradient);}.cls-5{fill:url(#linear-gradient-2);}.cls-6{fill:url(#linear-gradient-3);}.cls-7{fill:url(#linear-gradient-4);}.cls-8{opacity:0.2;}.cls-10,.cls-8,.cls-9{isolation:isolate;}.cls-9{opacity:0.12;}.cls-10{opacity:0.25;}</style><linearGradient id="linear-gradient" x1="20.61" y1="-129.34" x2="3.83" y2="-146.12" gradientTransform="matrix(1, 0, 0, -1, 0, -120.6)" gradientUnits="userSpaceOnUse"><stop offset="0" stop-color="#00a0ff"/><stop offset="0.01" stop-color="#00a1ff"/><stop offset="0.26" stop-color="#00beff"/><stop offset="0.51" stop-color="#00d2ff"/><stop offset="0.76" stop-color="#00dfff"/><stop offset="1" stop-color="#00e3ff"/></linearGradient><linearGradient id="linear-gradient-2" x1="29.96" y1="-140.7" x2="8.52" y2="-140.7" gradientTransform="matrix(1, 0, 0, -1, 0, -120.6)" gradientUnits="userSpaceOnUse"><stop offset="0" stop-color="#ffe000"/><stop offset="0.41" stop-color="#ffbd00"/><stop offset="0.78" stop-color="orange"/><stop offset="1" stop-color="#ff9c00"/></linearGradient><linearGradient id="linear-gradient-3" x1="22.09" y1="-142.76" x2="0.62" y2="-164.23" gradientTransform="matrix(1, 0, 0, -1, 0, -120.6)" gradientUnits="userSpaceOnUse"><stop offset="0" stop-color="#ff3a44"/><stop offset="1" stop-color="#c31162"/></linearGradient><linearGradient id="linear-gradient-4" x1="5.56" y1="-121.91" x2="15.14" y2="-131.49" gradientTransform="matrix(1, 0, 0, -1, 0, -120.6)" gradientUnits="userSpaceOnUse"><stop offset="0" stop-color="#32a071"/><stop offset="0.07" stop-color="#2da771"/><stop offset="0.48" stop-color="#15cf74"/><stop offset="0.8" stop-color="#06e775"/><stop offset="1" stop-color="#00f076"/></linearGradient></defs><title>Asset 1</title><g id="Layer_2" data-name="Layer 2"><g id="Layer_1-2" data-name="Layer 1"><g id="_Group_" data-name="&lt;Group&gt;"><path id="_Path_" data-name="&lt;Path&gt;" d="M115.1,40H4.4A4.72,4.72,0,0,1,0,35V5C0,2.3,2,0,4.4,0H115.2a4.72,4.72,0,0,1,4.4,5V35A4.8,4.8,0,0,1,115.1,40Z"/></g><g id="_Group_2" data-name="&lt;Group&gt;"><g id="_Group_3" data-name="&lt;Group&gt;"><path id="_Compound_Path_" data-name="&lt;Compound Path&gt;" class="cls-1" d="M115.1.8A4,4,0,0,1,118.8,5V35a4,4,0,0,1-3.7,4.2H4.4A4,4,0,0,1,.7,35V5A4,4,0,0,1,4.4.8H115.1m0-.8H4.4A4.72,4.72,0,0,0,0,5V35c0,2.7,2,5,4.4,5H115.2a4.72,4.72,0,0,0,4.4-5V5a4.8,4.8,0,0,0-4.5-5Z"/></g></g><g id="_Group_4" data-name="&lt;Group&gt;"><path id="_Path_2" data-name="&lt;Path&gt;" class="cls-2" d="M42,10.3a2.58,2.58,0,0,1-.7,2,2.52,2.52,0,0,1-2,.9,2.67,2.67,0,0,1-2-.9,3.42,3.42,0,0,1,0-4.4,2.52,2.52,0,0,1,2-.9,3.6,3.6,0,0,1,1.1.2,1.78,1.78,0,0,1,.8.7l-.5.5a1.75,1.75,0,0,0-2.8,0,2.35,2.35,0,0,0-.6,1.7,2.35,2.35,0,0,0,.6,1.7,2.1,2.1,0,0,0,1.4.7,1.8,1.8,0,0,0,1.5-.7,1.59,1.59,0,0,0,.4-1.2H39.3V9.9h2.6C42,9.9,42,10.1,42,10.3Z"/><path id="_Path_3" data-name="&lt;Path&gt;" class="cls-2" d="M46.1,7.7H43.7V9.6h2.2v.7H43.7v1.9h2.4v.7H43v-6h3.1Z"/><path id="_Path_4" data-name="&lt;Path&gt;" class="cls-2" d="M48.9,13h-.7V7.7H46.7V7h3.7v.7H48.9V13Z"/><path id="_Path_5" data-name="&lt;Path&gt;" class="cls-2" d="M53.1,13V7h.7v6Z"/><path id="_Path_6" data-name="&lt;Path&gt;" class="cls-2" d="M56.8,13h-.7V7.7H54.6V7h3.7v.7H56.8V13Z"/><path id="_Compound_Path_2" data-name="&lt;Compound Path&gt;" class="cls-2" d="M65.2,12.2a2.52,2.52,0,0,1-2,.9,2.67,2.67,0,0,1-2-.9,3.49,3.49,0,0,1-.8-2.2,3.29,3.29,0,0,1,.8-2.2,2.52,2.52,0,0,1,2-.9,2.67,2.67,0,0,1,2,.9A3.49,3.49,0,0,1,66,10,3.29,3.29,0,0,1,65.2,12.2Zm-3.4-.5a1.75,1.75,0,0,0,2.8,0,2.52,2.52,0,0,0,.6-1.7,2.35,2.35,0,0,0-.6-1.7,1.75,1.75,0,0,0-2.8,0,2.52,2.52,0,0,0-.6,1.7A2.35,2.35,0,0,0,61.8,11.7Z"/><path id="_Path_7" data-name="&lt;Path&gt;" class="cls-2" d="M66.9,13V7h.8l2.6,4.7h0V7H71v6h-.7L67.6,8.1h0V13Z"/></g><path id="_Compound_Path_3" data-name="&lt;Compound Path&gt;" class="cls-3" d="M60.3,21.7A4,4,0,0,0,56.5,26a3.83,3.83,0,1,0,7.6,0A4.06,4.06,0,0,0,60.3,21.7Zm0,6.9A2.39,2.39,0,0,1,58.2,26a2.39,2.39,0,0,1,2.1-2.6A2.33,2.33,0,0,1,62.4,26,2.26,2.26,0,0,1,60.3,28.6Zm-8.2-6.9A4,4,0,0,0,48.3,26a3.83,3.83,0,1,0,7.6,0A4.06,4.06,0,0,0,52.1,21.7Zm0,6.9A2.39,2.39,0,0,1,50,26a2.39,2.39,0,0,1,2.1-2.6A2.33,2.33,0,0,1,54.2,26,2.39,2.39,0,0,1,52.1,28.6Zm-9.8-5.5v1.8h3.8a4,4,0,0,1-.9,2.3,3.85,3.85,0,0,1-3,1.3c-2.4,0-4.2-2.1-4.2-4.8s1.8-4.8,4.2-4.8a4,4,0,0,1,2.9,1.3l1.1-1.3a5.22,5.22,0,0,0-4-1.8c-3.2,0-5.9,3-5.9,6.6s2.7,6.6,5.9,6.6a5.1,5.1,0,0,0,4.1-1.8,6.27,6.27,0,0,0,1.4-4.2,3.75,3.75,0,0,0-.1-1.1H42.3Zm40.1,1.3a3.56,3.56,0,0,0-3.2-2.7c-1.9,0-3.6,1.7-3.6,4.3,0,2.4,1.6,4.3,3.7,4.3a4,4,0,0,0,3.2-1.9l-1.3-1a2.12,2.12,0,0,1-1.9,1.2,1.8,1.8,0,0,1-1.8-1.3l5-2.3Zm-5.1,1.5a2.29,2.29,0,0,1,2-2.5,1.46,1.46,0,0,1,1.4.9ZM73.2,30h1.7V17.5H73.2Zm-2.7-7.3h0a2.6,2.6,0,0,0-2-1c-1.9,0-3.6,1.9-3.6,4.3a3.94,3.94,0,0,0,3.6,4.2,2.6,2.6,0,0,0,2-1h.1v.6c0,1.6-.8,2.5-2,2.5a2.17,2.17,0,0,1-1.9-1.5l-1.4.7A3.62,3.62,0,0,0,68.6,34c2,0,3.6-1.3,3.6-4.4V22H70.6v.7Zm-1.9,5.9A2.39,2.39,0,0,1,66.5,26c0-1.5.9-2.6,2.1-2.6s2,1.1,2,2.6S69.7,28.6,68.6,28.6ZM90.2,17.5h-4V30h1.6V25.3h2.3a3.72,3.72,0,0,0,3.6-3.9A3.59,3.59,0,0,0,90.2,17.5Zm0,6H87.8V19.2h2.4a2,2,0,0,1,1.9,2.1A2.1,2.1,0,0,1,90.2,23.5Zm10.2-1.8a3.22,3.22,0,0,0-3,1.9l1.5.7a1.49,1.49,0,0,1,1.5-.9,1.6,1.6,0,0,1,1.7,1.6v.1a3.11,3.11,0,0,0-1.7-.5,3,3,0,0,0-3.2,2.8,2.63,2.63,0,0,0,2.7,2.7,2.39,2.39,0,0,0,2.1-1.2h.1v1h1.6V25.1A3.13,3.13,0,0,0,100.4,21.7Zm-.2,6.9a1.21,1.21,0,0,1-1.3-1.1c0-1,.9-1.4,1.8-1.4a3,3,0,0,1,1.5.4A2.09,2.09,0,0,1,100.2,28.6Zm9.4-6.6-1.9,5.4h-.1l-2-5.4h-1.8l3,7.6-1.7,4.2h1.7L111.3,22ZM94.7,30h1.6V17.5H94.7Z"/><g id="_Group_5" data-name="&lt;Group&gt;"><path id="_Path_8" data-name="&lt;Path&gt;" class="cls-4" d="M9.2,7.6A2,2,0,0,0,8.8,9V31.1a2.59,2.59,0,0,0,.4,1.4l.1.1,11-12.4v-.3L9.2,7.6Z"/><path id="_Path_9" data-name="&lt;Path&gt;" class="cls-5" d="M23.9,24.3l-3.7-4.1V20l3.7-4.1H24l4.3,2.8a1.62,1.62,0,0,1,0,2.9l-4.4,2.7Z"/><path id="_Path_10" data-name="&lt;Path&gt;" class="cls-6" d="M24,24.2,20.3,20,9.3,32.4a1.35,1.35,0,0,0,1.8.1L24,24.2"/><path id="_Path_11" data-name="&lt;Path&gt;" class="cls-7" d="M24,15.8,11.1,7.5c-.8-.5-1.4-.4-1.8.1L20.3,20Z"/><g id="_Group_6" data-name="&lt;Group&gt;"><path id="_Path_12" data-name="&lt;Path&gt;" class="cls-8" d="M23.9,24.1,11,32.3a1.35,1.35,0,0,1-1.8,0h0l-.1.1h0l.1.1h0a1.35,1.35,0,0,0,1.8,0l12.9-8.3Z"/><path id="_Path_13" data-name="&lt;Path&gt;" class="cls-9" d="M9.2,32.3a2,2,0,0,1-.4-1.4V31a2.59,2.59,0,0,0,.4,1.4v-.1Z"/></g><path id="_Path_14" data-name="&lt;Path&gt;" class="cls-9" d="M28.3,21.3l-4.4,2.8.1.1,4.3-2.8a1.76,1.76,0,0,0,.9-1.5h0A1.62,1.62,0,0,1,28.3,21.3Z"/><path id="_Path_15" data-name="&lt;Path&gt;" class="cls-10" d="M11.1,7.6,28.4,18.7c.6.4.9.8.9,1.3h0a2,2,0,0,0-.9-1.5L11.1,7.4c-1.2-.8-2.2-.1-2.2,1.5V9C8.8,7.5,9.8,6.8,11.1,7.6Z"/></g></g></g></svg>