<?xml version="1.0" encoding="UTF-8" standalone="no"?>
<svg
   xmlns:dc="http://purl.org/dc/elements/1.1/"
   xmlns:cc="http://creativecommons.org/ns#"
   xmlns:rdf="http://www.w3.org/1999/02/22-rdf-syntax-ns#"
   xmlns:svg="http://www.w3.org/2000/svg"
   xmlns="http://www.w3.org/2000/svg"
   xmlns:sodipodi="http://sodipodi.sourceforge.net/DTD/sodipodi-0.dtd"
   xmlns:inkscape="http://www.inkscape.org/namespaces/inkscape"
   version="1.1"
   viewBox="0 0 715 725"
   id=""
   sodipodi:docname="suzuki_2.svg"
   inkscape:version="0.92.2 (5c3e80d, 2017-08-06)"
   width="715"
   height="725">
  <metadata
     id="metadata3713">
    <rdf:RDF>
      <cc:Work
         rdf:about="">
        <dc:format>image/svg+xml</dc:format>
        <dc:type
           rdf:resource="http://purl.org/dc/dcmitype/StillImage" />
        <dc:title></dc:title>
      </cc:Work>
    </rdf:RDF>
  </metadata>
  <defs
     id="defs3711" />
  <sodipodi:namedview
     pagecolor="#ffffff"
     bordercolor="#666666"
     borderopacity="1"
     objecttolerance="10"
     gridtolerance="10"
     guidetolerance="10"
     inkscape:pageopacity="0"
     inkscape:pageshadow="2"
     inkscape:window-width="1920"
     inkscape:window-height="1017"
     id="namedview3709"
     showgrid="false"
     inkscape:zoom="0.848"
     inkscape:cx="297.16981"
     inkscape:cy="500"
     inkscape:window-x="-4"
     inkscape:window-y="-4"
     inkscape:window-maximized="1"
     inkscape:current-layer=""
     showguides="true"
     inkscape:guide-bbox="true">
    <sodipodi:guide
       position="-321.93396,18.867925"
       orientation="0,1"
       id="guide855"
       inkscape:locked="false" />
    <sodipodi:guide
       position="432.78302,625"
       orientation="0,1"
       id="guide887"
       inkscape:locked="false" />
  </sodipodi:namedview>
  <path
     inkscape:connector-curvature="0"
     style="fill:#222222;stroke-width:3.28526878"
     d="m 288.99601,228.6314 c 4.6848,-15.29621 16.5479,-7.49041 16.5479,-7.49041 0,0 30.74355,23.41083 115.06655,77.06913 84.32298,53.65829 189.4483,-20.80562 189.4483,-20.80562 L 360.37834,100 C 250.86719,216.0784 110.69791,257.6929 110.69791,257.6929 l 0.39752,0.1544 319.154,223.79579 c -4.6848,15.29622 -16.5479,7.49371 -16.5479,7.49371 0,0 -30.74355,-23.41411 -115.06654,-77.0757 -84.32299,-53.65829 -189.4483,20.80889 -189.4483,20.80889 L 358.86711,610.2745 C 468.37825,494.19282 608.54753,452.58161 608.54753,452.58161 l -0.40409,-0.15769 z"
     id="path829" />
  <g
     transform="matrix(3.2852687,0,0,3.2852687,106.70631,100)"
     style="fill:#222222"
     id="g833">
    <path
       inkscape:connector-curvature="0"
       d="m 0,176.761 11.692,0.062 c 0.201,1.1 -0.115,1.096 0.5,1.67 0.963,0.896 2.457,1.1 3.711,0.879 1.027,-0.18 2.619,-0.494 2.695,-1.769 0.083,-1.384 -0.875,-1.866 -2.077,-2.024 -1.662,-0.217 -3.339,-0.274 -4.996,-0.539 -4.269,-0.701 -6.539,-1.015 -8.357,-2.174 -1.834,-1.16 -1.992,-3.686 -1.992,-5.484 0,-1.182 0.469,-2.297 1.407,-3.35 0.938,-1.049 2.349,-1.875 4.232,-2.478 1.884,-0.601 4.465,-0.899 7.746,-0.899 4.024,0 7.095,0.545 9.206,1.635 2.114,1.09 3.371,3.521 3.772,5.896 h -9.941 c 0.074,-0.141 -0.195,-0.777 -0.238,-0.936 -0.381,-1.379 -1.712,-1.781 -2.987,-2.063 -1.045,-0.231 -2.239,-0.251 -3.181,0.325 -0.573,0.352 -1.018,0.723 -1.018,1.227 0,0.365 0.236,0.694 0.71,0.987 0.461,0.302 1.55,0.585 3.269,0.845 4.255,0.672 7.302,1.348 9.144,2.031 1.84,0.688 3.179,1.535 4.018,2.548 0.837,1.013 1.257,2.147 1.257,3.401 0,1.474 -0.559,2.832 -1.677,4.074 -1.116,1.242 -2.677,2.188 -4.682,2.83 -2.006,0.643 -4.533,0.963 -7.583,0.963 -5.355,0 -9.066,-0.752 -11.127,-2.256 C 1.439,180.66 0.272,179.083 0,176.761 Z m 47.439,-15.674 h 8.641 v 16.246 c 0,3.334 -2.071,5.695 -6.214,7.09 -1.917,0.636 -4.215,0.66 -6.817,0.66 -2.333,0 -4.426,0.043 -6.362,-0.461 -4.56,-1.822 -6.839,-4.252 -6.839,-7.289 V 161.087 H 38.55 V 175 c 0,2.533 0.336,4.418 4.5,4.418 4.248,0 4.333,-1.967 4.333,-4.5 z m 56.499,0 h 8.642 v 16.246 c 0,3.334 -2.071,5.695 -6.214,7.09 -1.916,0.636 -4.215,0.66 -6.817,0.66 -2.333,0 -4.427,0.043 -6.362,-0.461 -4.561,-1.822 -6.84,-4.252 -6.84,-7.289 v -16.246 h 8.702 V 175 c 0,2.533 0.337,4.418 4.5,4.418 4.248,0 4.333,-1.967 4.333,-4.5 z m -46.08,0.168 h 26.766 v 4.994 L 71.549,178 h 13.076 v 6.541 H 57.858 v -5.623 L 70.632,167.334 H 57.882 Z M 114.72,184.5 v -23.285 h 8.579 l -0.002,8.619 9.253,-8.619 h 10.737 l -12.321,11.285 12.834,12 h -11.584 l -8.834,-8.332 0.084,8.332 z m 38.868,-23.288 V 184.5 h -8.562 v -23.285 h 8.562 z"
       id="path831" />
  </g>
</svg>
