<svg width="1000" height="1000" xmlns="http://www.w3.org/2000/svg">
 <g>
  <title>background</title>
  <rect x="-1" y="-1" width="1002" height="1002" id="canvas_background" fill="none"/>
 </g>

 <g>
  <title>Layer 1</title>
  <path fill="none" stroke="#FFFFFF" stroke-miterlimit="10" d="m233.6,313.53334" id="svg_5"/>
  <g id="svg_13">
   <g stroke="null" id="svg_11">
    <path stroke="null" fill="#DC4226" d="m733.519255,196.50753c-21.4469,-8.40754 -41.79396,-7.847038 -63.79079,-2.242008c-21.44691,5.60502 -36.84468,17.936084 -53.89222,31.388141c-17.04754,13.452068 -35.19493,26.904126 -54.99207,35.872168c-20.34706,8.968042 -43.44373,18.496596 -65.44056,9.528554c15.9477,0.560502 30.79556,-2.80252 44.54358,-11.770562c10.44849,-6.726034 28.59587,-20.738594 32.44532,-33.63016l-18.14739,0c13.1981,-14.573062 29.69572,-25.783122 47.8431,-32.509156l-8.79873,-10.649548c24.19651,-16.81508 50.5927,-24.662118 79.73849,-25.783122c13.74802,-0.560502 27.49604,1.121004 40.14421,5.044528c13.74802,3.923514 24.19651,10.649548 34.09508,20.738594l-13.74801,14.01257l-0.00001,0z" id="svg_7"/>
    <path stroke="null" fill="#DC4226" d="m385.419485,255.360309c-7.69889,0 -14.29793,0.560502 -21.99682,2.80251c-7.14897,2.242008 -13.74802,5.044528 -20.89699,7.847038c-13.19809,5.60503 -25.84627,12.891556 -38.49444,19.61759c-5.49921,2.80251 -12.09826,6.165532 -18.14738,7.286536c-6.59905,1.121004 -15.39778,1.121004 -21.44691,-1.681506c-6.59905,-3.363022 -12.09825,-6.726034 -17.59746,-11.770562c-5.4992,-5.044518 -10.99841,-10.089046 -16.49762,-14.01256c-6.04912,-3.923524 -12.09825,-6.726034 -18.14738,-10.649548c2.7496,0 17.04754,-0.560502 13.1981,-6.726034c-3.29953,-5.044528 -10.99842,-7.286536 -17.04754,-8.40754c-13.74802,-2.80251 -27.49603,-2.80251 -41.24405,-2.80251c11.54833,-10.089056 24.19651,-15.133574 39.59429,-15.133574c14.29793,0 25.84627,6.726034 37.94452,14.01256c6.04913,3.923524 13.1981,10.649558 19.24722,14.573072c6.04913,3.923524 12.64818,6.165532 19.24723,8.40754c12.64817,4.484016 28.59587,2.242008 41.24405,-2.242008c10.44849,-3.923524 19.79714,-8.40754 31.34547,-8.40754c10.44849,-1.681506 20.34707,1.121004 29.69572,7.286536l-0.00001,0z" id="svg_8"/>
    <path stroke="null" fill="#DC4226" d="m277.635045,368.021339c22.54674,-1.121004 41.24405,-23.541114 53.89222,-40.356194c13.74802,-17.936084 23.09667,-44.840209 44.54357,-54.929255c31.8954,-14.573072 65.44056,-2.242018 94.58635,13.452058c27.49604,14.01257 65.99048,11.770562 93.48651,-0.560502c30.24564,-13.452058 53.34231,-36.43267 79.18858,-56.050259c24.19651,-18.496586 55.54198,-31.388152 92.93659,-21.299106l16.49762,-20.178092l3.29952,33.069658l58.29159,59.973783l-11.54833,14.01256l-37.39461,0l0,-9.528544c-10.99841,-7.847038 -22.54674,-13.452068 -36.29476,-11.770552c-14.29794,1.681506 -29.69572,8.40754 -27.49603,25.783122c1.64976,11.770552 18.14738,22.4201 26.39619,28.585632c11.54833,7.847038 23.64659,15.133574 35.74484,22.980612c24.74643,15.694076 48.39302,33.069647 71.48968,51.566243c21.44691,17.375582 43.44374,35.311666 59.94136,57.171263l-50.5927,-10.089046c9.34865,-6.726034 -1.64977,-14.01257 -7.69889,-19.057088c-7.69889,-6.165532 -15.39778,-11.21005 -24.19651,-16.254578c-17.04754,-9.528544 -35.19492,-14.573072 -53.89223,-19.057088c-35.74484,-8.968042 -81.93817,-14.573072 -113.28365,8.40754c-1.09984,0.560502 -2.19968,1.681506 -3.29952,2.242008l-17.59747,-15.133574c-56.64182,19.6176 -119.8827,14.573072 -172.12516,-14.573062c-21.4469,15.133564 -46.19333,18.496586 -70.93976,21.299096c-23.64659,2.80251 -48.39302,1.121004 -72.58953,-1.121004c-57.74167,48.763733 -136.38032,77.349365 -210.06969,51.566243l49.49286,-12.891556l0,11.21005c53.3423,0 97.88588,-38.114186 129.23135,-78.470369l0.00001,0z" id="svg_9"/>
   </g>
   <g id="svg_12" stroke="null">
    <polygon fill="#253C80" points="159.89503479003906,788.2727813720703 127.42997741699219,788.2727813720703 114.77404022216797,835.0448760986328 272.14715576171875,835.0448760986328 284.2526550292969,788.2727813720703 246.28506469726562,788.2727813720703 284.2526550292969,632.5505523681641 310.11492919921875,632.5505523681641 307.9137268066406,658.4126739501953 362.3890075683594,658.4126739501953 384.3992004394531,576.4244537353516 122.47756958007812,576.4244537353516 101.01763916015625,658.4126739501953 157.6938934326172,658.4126739501953 169.24928283691406,632.0004425048828 197.31234741210938,632.0004425048828 " id="svg_1" stroke="null"/>
    <polygon fill="#253C80" points="570.3853759765625,576.4244537353516 691.9920043945312,576.4244537353516 529.6666870117188,835.0448760986328 427.869384765625,835.0448760986328 413.5628356933594,623.1961212158203 392.6532287597656,623.1961212158203 404.7587890625,576.4244537353516 539.5712890625,576.4244537353516 527.465576171875,623.1961212158203 504.3548583984375,623.1961212158203 503.8047790527344,755.8075714111328 581.3906860351562,623.1961212158203 555.5286865234375,623.1961212158203 " id="svg_2" stroke="null"/>
    <path fill="none" stroke-miterlimit="10" d="m709.050025,756.358026" id="svg_3" stroke="#FFFFFF"/>
    <path fill="none" stroke-miterlimit="10" d="m657.326005,756.358026" id="svg_4" stroke="#FFFFFF"/>
    <path fill="#253C80" d="m882.380505,652.909996c0,-25.86201 8.25384,-48.97275 18.70869,-72.63373c-45.6712,-8.25384 -95.1942,-11.55537 -140.31515,0c-25.31176,6.60306 -51.72402,22.56047 -66.03067,45.12095c-16.50766,25.31175 -12.65587,57.77683 7.70358,79.2368c10.45485,10.45485 23.11073,17.60817 36.31686,23.66098c10.45486,4.9523 28.61329,12.65588 31.36457,24.7615c7.70358,30.81431 -41.81942,33.56559 -61.07836,27.51278l0,-24.21125l-51.72402,0l-19.8092,72.08348c46.22146,11.55536 94.64395,15.40715 141.41567,4.9523c28.06303,-6.60307 53.37478,-20.90971 72.08347,-43.47019c15.40715,-19.25894 24.21124,-55.02555 7.70358,-75.93526c-9.35435,-11.55537 -19.8092,-20.35946 -32.46508,-27.51278c-12.10562,-7.15332 -25.31175,-11.55536 -36.31686,-19.8092c-13.20614,-9.9046 -13.20614,-25.31175 1.10051,-34.11584c11.00511,-7.15332 29.16354,-3.85179 41.26916,-1.65077l2.20102,21.45997l47.87223,0l0,0.55026z" id="svg_6" stroke="null"/>
   </g>
   <rect fill="#253C80" stroke="null" stroke-width="null" stroke-opacity="null" fill-opacity="null" x="483.053272" y="515.152438" width="0" height="6.666715" id="svg_15"/>
  </g>
 </g>
</svg>